<svg width="314" height="313" viewBox="0 0 314 313" fill="none" xmlns="http://www.w3.org/2000/svg">
<path d="M245.105 253.17L225.07 261.341L231.542 277.109L251.577 268.938L245.105 253.17Z" fill="#F0B6BB"/>
<path d="M257.006 278.591L217.331 294.772C215.072 295.689 213.129 292.914 214.782 291.122L228.783 275.921L224.997 273.818L236.059 269.306L236.337 273.559C240.474 272.938 245.975 271.235 250.402 266.025C250.402 266.027 255.4 269.838 257.006 278.591Z" fill="#D9D9D9"/>
<path d="M214.425 293.499L256.55 276.32L257.468 278.557C257.755 279.256 257.751 280.039 257.458 280.735C257.166 281.431 256.607 281.983 255.907 282.269L220.009 296.908C219.058 297.296 217.992 297.291 217.044 296.895C216.097 296.499 215.346 295.744 214.957 294.796L214.422 293.492L214.425 293.499Z" fill="#252121"/>
<path d="M225.393 279.601L232.424 279.209" stroke="#252121" stroke-miterlimit="10"/>
<path d="M221.795 283.545L228.827 283.153" stroke="#252121" stroke-miterlimit="10"/>
<path d="M221.26 291.683L234.332 276.943" stroke="#252121" stroke-miterlimit="10"/>
<path d="M252.014 267.631C252.014 267.631 246.548 270.353 250.89 279.723" stroke="#252121" stroke-miterlimit="10"/>
<path d="M235.96 281.778C236.468 281.778 236.879 281.368 236.879 280.861C236.879 280.355 236.468 279.945 235.96 279.945C235.452 279.945 235.04 280.355 235.04 280.861C235.04 281.368 235.452 281.778 235.96 281.778Z" fill="#252121"/>
<path d="M240.215 280.043C240.722 280.043 241.134 279.633 241.134 279.127C241.134 278.621 240.722 278.21 240.215 278.21C239.707 278.21 239.295 278.621 239.295 279.127C239.295 279.633 239.707 280.043 240.215 280.043Z" fill="#252121"/>
<path d="M229.427 277.956C229.427 277.956 214.842 279.943 220.462 277.899C226.082 275.855 229.427 277.956 229.427 277.956Z" stroke="#252121" stroke-miterlimit="10"/>
<path d="M229.56 277.901C229.56 277.901 241.357 269.127 235.914 271.595C230.471 274.063 229.56 277.901 229.56 277.901Z" stroke="#252121" stroke-miterlimit="10"/>
<path d="M271.217 266.634H249.57V283.671H271.217V266.634Z" fill="#F0B6BB"/>
<path d="M272.557 294.669H229.689C227.248 294.669 226.505 291.363 228.716 290.316L247.451 281.533L244.743 278.171H256.696L255.338 282.213C259.397 283.196 265.141 283.7 271.217 280.55C271.217 280.55 274.396 285.962 272.557 294.669Z" fill="#D9D9D9"/>
<path d="M239.353 210.973L253.896 264.361L226.834 271.694L210.3 209.043C209.894 207.507 209.854 205.897 210.183 204.342C210.512 202.788 211.2 201.331 212.194 200.089L247.78 155.583L269.711 172.998L239.353 210.973Z" fill="#FD521B"/>
<path d="M253.342 254.389L223.04 262.936L225.793 272.637L256.096 264.09L253.342 254.389Z" fill="#FD521B"/>
<path d="M223.901 265.947L254.202 257.398" stroke="#252121" stroke-miterlimit="10"/>
<path d="M279.683 157.417C279.683 157.417 282.901 178.497 274.396 207.941V271.068H246.352V157.417H279.683Z" fill="#FD521B"/>
<path d="M275.775 266.715H244.283V276.797H275.775V266.715Z" fill="#FD521B"/>
<path d="M246.352 266.715H274.396V262.173L246.352 266.715Z" fill="#252121"/>
<path d="M263.477 160.281C263.983 161.656 263.316 266.715 263.316 266.715" stroke="#252121" stroke-miterlimit="10"/>
<path d="M244.283 269.849H275.775" stroke="#252121" stroke-miterlimit="10"/>
<path d="M246.352 157.417L246.582 201.928L240.605 164.55L246.352 157.417Z" fill="#252121"/>
<path d="M246.352 266.714H244.283L246.352 236.661" fill="#252121"/>
<path d="M247.731 159.937H278.763" stroke="#252121" stroke-miterlimit="10"/>
<path d="M279.798 179.299L274.511 175.175L274.396 159.937" stroke="#252121" stroke-miterlimit="10"/>
<path d="M224.423 262.542L246.352 256.355V251.064L224.423 262.542Z" fill="#252121"/>
<path d="M237.541 258.841L224.768 209.405C224.476 208.274 224.453 207.09 224.7 205.949C224.947 204.807 225.457 203.738 226.19 202.827L246.591 177.393" stroke="#252121" stroke-miterlimit="10"/>
<path d="M227.503 292.378H273.017V294.802C273.017 295.557 272.716 296.281 272.181 296.814C271.645 297.348 270.919 297.648 270.162 297.648H231.376C230.349 297.648 229.364 297.241 228.637 296.517C227.911 295.793 227.503 294.811 227.503 293.787V292.378Z" fill="#252121"/>
<path d="M242.913 283.671L249.57 285.962" stroke="#252121" stroke-miterlimit="10"/>
<path d="M238.086 285.962L244.743 288.253" stroke="#252121" stroke-miterlimit="10"/>
<path d="M234.498 293.294L252.198 284.587" stroke="#252121" stroke-miterlimit="10"/>
<path d="M272.1 282.642C272.1 282.642 266.006 283.1 266.465 293.411" stroke="#252121" stroke-miterlimit="10"/>
<path d="M252.214 289.743C252.721 289.743 253.133 289.332 253.133 288.826C253.133 288.32 252.721 287.91 252.214 287.91C251.706 287.91 251.294 288.32 251.294 288.826C251.294 289.332 251.706 289.743 252.214 289.743Z" fill="#252121"/>
<path d="M256.811 289.743C257.319 289.743 257.731 289.332 257.731 288.826C257.731 288.32 257.319 287.91 256.811 287.91C256.303 287.91 255.892 288.32 255.892 288.826C255.892 289.332 256.303 289.743 256.811 289.743Z" fill="#252121"/>
<path d="M247.272 283.67C247.272 283.67 233.02 280.004 238.996 280.233C244.973 280.463 247.272 283.67 247.272 283.67Z" stroke="#252121" stroke-miterlimit="10"/>
<path d="M247.416 283.67C247.416 283.67 261.668 280.004 255.692 280.233C249.715 280.463 247.416 283.67 247.416 283.67Z" stroke="#252121" stroke-miterlimit="10"/>
<path d="M215.32 204.619L219.228 214.242" stroke="#D9D9D9" stroke-miterlimit="10" stroke-linecap="round"/>
<path d="M241.051 194.988L237.173 204.626" stroke="#D9D9D9" stroke-miterlimit="10" stroke-linecap="round"/>
<path d="M236.042 187.756L225.629 188.028" stroke="#D9D9D9" stroke-miterlimit="10" stroke-linecap="round"/>
<path d="M239.491 219.836L230.951 219.742" stroke="#D9D9D9" stroke-miterlimit="10" stroke-linecap="round"/>
<path d="M255.225 240.9L253.375 232.589" stroke="#D9D9D9" stroke-miterlimit="10" stroke-linecap="round"/>
<path d="M272.925 192.094L271.074 183.783" stroke="#D9D9D9" stroke-miterlimit="10" stroke-linecap="round"/>
<path d="M253.03 176.875L258.788 170.587" stroke="#D9D9D9" stroke-miterlimit="10" stroke-linecap="round"/>
<path d="M231.723 250.027L224.009 246.376" stroke="#D9D9D9" stroke-miterlimit="10" stroke-linecap="round"/>
<path d="M221.319 232.282L225.216 224.707" stroke="#D9D9D9" stroke-miterlimit="10" stroke-linecap="round"/>
<path d="M260.085 202.802L251.733 201.028" stroke="#D9D9D9" stroke-miterlimit="10" stroke-linecap="round"/>
<path d="M239.364 242.504L237.514 234.193" stroke="#D9D9D9" stroke-miterlimit="10" stroke-linecap="round"/>
<path d="M270.166 223.715L268.316 215.404" stroke="#D9D9D9" stroke-miterlimit="10" stroke-linecap="round"/>
<path d="M258.498 218.963L250.101 217.407" stroke="#D9D9D9" stroke-miterlimit="10" stroke-linecap="round"/>
<path d="M270.166 257.398L268.316 249.087" stroke="#D9D9D9" stroke-miterlimit="10" stroke-linecap="round"/>
<path d="M255.915 261.064L254.064 252.753" stroke="#D9D9D9" stroke-miterlimit="10" stroke-linecap="round"/>
<path d="M256.834 195.073L254.984 186.762" stroke="#D9D9D9" stroke-miterlimit="10" stroke-linecap="round"/>
<path d="M81.2192 80.3442L91.7173 99.6742L71.259 102.882V82.9472L81.2192 80.3442Z" fill="#FDAD00"/>
<path d="M90.8576 145.043L90.2163 145.385C88.6006 146.246 86.7079 146.432 84.9543 145.903C83.2008 145.374 81.7299 144.172 80.8652 142.562L67.4708 117.609C66.6067 115.998 66.4196 114.112 66.9507 112.365C67.4818 110.617 68.6876 109.151 70.3028 108.29L70.9441 107.946C71.744 107.519 72.6205 107.254 73.5234 107.164C74.4263 107.075 75.3379 107.164 76.2063 107.426C77.0747 107.689 77.8827 108.119 78.5843 108.692C79.2859 109.266 79.8672 109.971 80.2951 110.769L90.9702 130.658L91.5886 131.804L92.2483 133.034L93.6873 135.715C94.116 136.513 94.3829 137.387 94.4728 138.287C94.5626 139.188 94.4736 140.097 94.2108 140.963C93.9481 141.83 93.5167 142.636 92.9413 143.336C92.366 144.036 91.6579 144.616 90.8576 145.043Z" fill="#252121"/>
<path d="M122.701 142.17C122.701 142.17 134.156 143.655 138.291 136.283C138.783 135.408 139.013 134.41 138.956 133.409C138.899 132.407 138.555 131.442 137.967 130.628L137.114 129.444C136.601 128.738 135.849 128.241 134.997 128.044C134.145 127.847 133.25 127.964 132.478 128.374C130.639 129.324 127.88 130.149 124.331 129.393C124.331 129.393 133.28 127.12 131.39 126.536C129.501 125.952 119.035 128.27 118.959 128.259C118.883 128.247 122.701 142.17 122.701 142.17Z" fill="#F0B6BB"/>
<path d="M123.625 142.463L89.2509 146.97C88.2694 147.099 87.2721 147.034 86.3159 146.779C85.3596 146.523 84.4633 146.083 83.6781 145.482C82.8929 144.881 82.2342 144.131 81.7397 143.276C81.2453 142.421 80.9247 141.478 80.7963 140.499L80.3481 137.101C80.2829 136.609 80.3155 136.109 80.4443 135.629C80.573 135.15 80.7953 134.7 81.0985 134.306C81.4016 133.912 81.7796 133.582 82.211 133.334C82.6423 133.086 83.1184 132.925 83.6122 132.86L90.5703 131.943L91.591 131.808L94.0345 131.487L121.699 127.865L123.625 142.463Z" fill="#252121"/>
<path d="M116.074 143.563L114.116 128.972" stroke="#D9D9D9" stroke-miterlimit="10"/>
<path d="M119.072 132.899C119.96 132.899 120.681 132.181 120.681 131.295C120.681 130.409 119.96 129.691 119.072 129.691C118.183 129.691 117.463 130.409 117.463 131.295C117.463 132.181 118.183 132.899 119.072 132.899Z" stroke="#D9D9D9" stroke-miterlimit="10"/>
<path d="M63.1144 261.015L81.3669 272.615L104.173 236.959L85.9203 225.359L63.1144 261.015Z" fill="#F0B6BB"/>
<path d="M57.3062 268.165L93.4529 291.134C95.5217 292.442 97.9216 290.052 96.6159 287.994L85.5547 270.55L89.6555 269.157L79.5758 262.741L78.5437 266.866C74.5899 265.518 69.4731 262.865 66.0503 256.953C66.0503 256.976 60.4553 259.84 57.3062 268.165Z" fill="#FD521B"/>
<path d="M90.4459 292.749L57.7398 271.964C57.1013 271.558 56.6507 270.916 56.4871 270.179C56.3234 269.442 56.4602 268.67 56.8673 268.034L58.1747 265.99L96.5522 290.38L95.7922 291.568C95.2402 292.431 94.3669 293.041 93.3644 293.262C92.3619 293.483 91.3121 293.299 90.4459 292.749Z" fill="#252121"/>
<path d="M88.2348 274.775L81.3848 273.139" stroke="#252121" stroke-miterlimit="10"/>
<path d="M91.0693 279.294L84.2192 277.658" stroke="#252121" stroke-miterlimit="10"/>
<path d="M90.1405 287.399L79.9114 270.571" stroke="#252121" stroke-miterlimit="10"/>
<path d="M64.1769 258.269C64.1769 258.269 69.0708 261.919 63.1218 270.367" stroke="#252121" stroke-miterlimit="10"/>
<path d="M77.6104 275.055C78.1182 275.055 78.5299 274.645 78.5299 274.138C78.5299 273.632 78.1182 273.222 77.6104 273.222C77.1026 273.222 76.6909 273.632 76.6909 274.138C76.6909 274.645 77.1026 275.055 77.6104 275.055Z" fill="#252121"/>
<path d="M73.7349 272.592C74.2427 272.592 74.6544 272.182 74.6544 271.675C74.6544 271.169 74.2427 270.759 73.7349 270.759C73.2271 270.759 72.8154 271.169 72.8154 271.675C72.8154 272.182 73.2271 272.592 73.7349 272.592Z" fill="#252121"/>
<path d="M62.2029 103.81L73.7695 103.343L73.1926 89.1485L61.6259 89.6156L62.2029 103.81Z" fill="#F0B6BB"/>
<path d="M71.2247 97.9901C77.6714 97.9901 82.8974 92.7807 82.8974 86.3545C82.8974 79.9284 77.6714 74.719 71.2247 74.719C64.7781 74.719 59.552 79.9284 59.552 86.3545C59.552 92.7807 64.7781 97.9901 71.2247 97.9901Z" fill="#F0B6BB"/>
<path d="M79.084 86.0107L81.539 89.8098L79.3253 91.9637" stroke="#252121" stroke-miterlimit="10"/>
<path d="M73.5417 97.7609C73.5417 97.7609 66.5123 99.6742 61.7678 93.1782L61.9517 97.7037L73.6244 99.7934L73.5417 97.7609Z" fill="#DD9BA3"/>
<path d="M80.4538 93.4646C80.4538 93.4646 77.5896 94.7845 75.4312 92.5779" stroke="#252121" stroke-miterlimit="10"/>
<path d="M81.9088 87.7293C82.2897 87.7293 82.5984 87.4215 82.5984 87.0419C82.5984 86.6623 82.2897 86.3545 81.9088 86.3545C81.528 86.3545 81.2192 86.6623 81.2192 87.0419C81.2192 87.4215 81.528 87.7293 81.9088 87.7293Z" fill="#252121"/>
<path d="M78.0058 87.8875C78.3866 87.8875 78.6954 87.5797 78.6954 87.2001C78.6954 86.8205 78.3866 86.5127 78.0058 86.5127C77.6249 86.5127 77.3162 86.8205 77.3162 87.2001C77.3162 87.5797 77.6249 87.8875 78.0058 87.8875Z" fill="#252121"/>
<path d="M38.9089 283.552L60.5464 284.181L62.4344 219.631L40.7969 219.002L38.9089 283.552Z" fill="#F0B6BB"/>
<path d="M37.2386 294.511L80.0883 295.755C82.5272 295.824 83.3663 292.547 81.1871 291.443L62.7172 282.119L65.5216 278.827L53.5684 278.481L54.8097 282.559C50.7227 283.425 44.9645 283.762 38.9856 280.435C38.9902 280.435 35.6525 285.754 37.2386 294.511Z" fill="#FD521B"/>
<path d="M78.3261 298.682L39.5569 297.555C38.8001 297.533 38.083 297.212 37.5634 296.663C37.0438 296.114 36.7643 295.382 36.7864 294.627L36.8573 292.204L82.3518 293.526L82.3108 294.93C82.2808 295.954 81.8442 296.924 81.097 297.626C80.3497 298.329 79.3531 298.707 78.3263 298.677L78.3261 298.682Z" fill="#252121"/>
<path d="M67.1906 284.376L60.4692 286.473" stroke="#252121" stroke-miterlimit="10"/>
<path d="M71.9486 286.807L65.2273 288.904" stroke="#252121" stroke-miterlimit="10"/>
<path d="M75.3209 294.241L57.8831 285.022" stroke="#252121" stroke-miterlimit="10"/>
<path d="M38.0454 282.502C38.0454 282.502 44.1231 283.134 43.3623 293.427" stroke="#252121" stroke-miterlimit="10"/>
<path d="M57.743 290.176C58.2508 290.176 58.6624 289.766 58.6624 289.259C58.6624 288.753 58.2508 288.343 57.743 288.343C57.2351 288.343 56.8235 288.753 56.8235 289.259C56.8235 289.766 57.2351 290.176 57.743 290.176Z" fill="#252121"/>
<path d="M53.1477 290.043C53.6556 290.043 54.0672 289.632 54.0672 289.126C54.0672 288.62 53.6556 288.21 53.1477 288.21C52.6399 288.21 52.2283 288.62 52.2283 289.126C52.2283 289.632 52.6399 290.043 53.1477 290.043Z" fill="#252121"/>
<path d="M85.281 159.479L49.3503 156.958L52.6398 121.213C52.6398 114.353 58.1566 103.176 64.9032 101.863C65.3311 101.779 65.766 101.737 66.202 101.737H70.7993C72.9371 101.737 74.7255 102.738 76.1989 104.346C79.4447 107.898 81.1388 114.406 81.6124 119.609L85.281 159.479Z" fill="#252121"/>
<path d="M49.8814 152.605L32.4114 236.01L109.877 239.447L83.2123 152.605H49.8814Z" fill="#252121"/>
<path d="M76.1899 104.346L74.7072 134.732L64.9033 101.863C65.3312 101.779 65.7661 101.737 66.2021 101.737H70.7994C72.928 101.737 74.7072 102.738 76.1899 104.346Z" fill="#D9D9D9"/>
<path d="M74.7071 134.732L75.4404 152.605L64.8228 164.52L49.8813 152.605" stroke="#D9D9D9" stroke-miterlimit="10"/>
<path d="M74.3279 153.851L85.2811 159.479" stroke="#D9D9D9" stroke-miterlimit="10"/>
<path d="M72.65 107.206L73.7878 104.028L72.1787 101.737H69.8801L68.7307 105.174L70.7995 107.236H71.0478L71.2202 123.042L74.4774 134.961L75.167 134.732L75.3969 122.588L72.65 107.206Z" fill="#FD521B"/>
<path d="M75.6267 103.57C75.9325 103.824 80.9137 110.673 80.9137 110.673L77.9254 118.005L80.9137 129.233L75.167 134.503L75.6267 103.57Z" fill="#252121" stroke="#D9D9D9" stroke-miterlimit="10"/>
<path d="M37.9282 140.46L37.3283 140.055C35.8141 139.026 34.7718 137.441 34.4304 135.646C34.089 133.852 34.4765 131.996 35.5077 130.486L51.4905 107.096C52.0001 106.347 52.6529 105.707 53.4115 105.21C54.1701 104.714 55.0195 104.371 55.911 104.203C56.8026 104.034 57.7188 104.043 58.6071 104.228C59.4953 104.413 60.3383 104.771 61.0875 105.281L61.6897 105.691C62.4397 106.2 63.0817 106.851 63.5789 107.607C64.076 108.363 64.4187 109.21 64.5872 110.098C64.7556 110.987 64.7466 111.9 64.5607 112.784C64.3747 113.669 64.0154 114.509 63.5034 115.255L50.7595 133.896L50.0193 134.977L49.2309 136.123L47.5137 138.643C46.4825 140.149 44.8945 141.186 43.0977 141.527C41.3009 141.867 39.4419 141.484 37.9282 140.46Z" fill="#252121"/>
<path d="M64.9124 101.594C64.6825 101.911 61.3816 109.708 61.3816 109.708L65.9721 116.172L65.6227 127.785L74.4772 134.732L64.9124 101.594Z" fill="#252121" stroke="#D9D9D9" stroke-miterlimit="10"/>
<path d="M39.866 170.12C39.866 170.12 38.7419 181.551 46.1782 185.499C47.0573 185.966 48.0527 186.172 49.0455 186.09C50.0384 186.009 50.9868 185.645 51.7778 185.041L52.9271 184.166C53.6133 183.631 54.0837 182.869 54.2525 182.017C54.4213 181.166 54.2772 180.282 53.8466 179.528C52.4886 177.063 52.0428 174.201 52.5869 171.442C52.5869 171.442 55.1155 180.298 55.635 178.405C56.1545 176.513 53.5409 166.147 53.5478 166.073C53.5546 166 39.866 170.12 39.866 170.12Z" fill="#F0B6BB"/>
<path d="M39.627 171.268L34.1883 137.126C33.8782 135.16 34.3643 133.151 35.5399 131.542C36.7154 129.933 38.4841 128.855 40.4568 128.545L43.8543 128.007C44.8477 127.85 45.863 128.093 46.6769 128.682C47.4908 129.271 48.0365 130.158 48.1942 131.148L49.2953 138.057L49.4562 139.07L49.8447 141.496L54.2122 168.965L39.627 171.268Z" fill="#252121"/>
<path d="M38.8386 165.823L53.4192 163.482" stroke="#D9D9D9" stroke-miterlimit="10"/>
<path d="M41.9946 170.166C42.8832 170.166 43.6037 169.448 43.6037 168.562C43.6037 167.676 42.8832 166.958 41.9946 166.958C41.1059 166.958 40.3855 167.676 40.3855 168.562C40.3855 169.448 41.1059 170.166 41.9946 170.166Z" stroke="#D9D9D9" stroke-miterlimit="10"/>
<path d="M82.5227 82.9473L75.6519 78.8755C74.4773 80.4588 72.5648 82.0307 69.4202 82.9839L67.3514 104.944H48.2723C47.3368 104.944 48.6079 91.9638 48.7642 91.1297C50.286 83.032 54.6328 75.4316 62.8552 72.6957C66.7744 71.3919 71.3074 71.1101 75.2106 72.6178C79.7275 74.3638 81.9411 78.3141 82.5227 82.9473Z" fill="#FDAD00"/>
<path d="M191.885 154.667H247.848V101.049H191.885V154.667Z" fill="#FD521B"/>
<path d="M267.291 95.6987H255.715V109.905H267.291V95.6987Z" fill="#F0B6BB"/>
<path d="M257.565 104.463C264.012 104.463 269.238 99.2538 269.238 92.8277C269.238 86.4015 264.012 81.1921 257.565 81.1921C251.118 81.1921 245.892 86.4015 245.892 92.8277C245.892 99.2538 251.118 104.463 257.565 104.463Z" fill="#F0B6BB"/>
<path d="M247.17 94.1749C247.551 94.1749 247.86 93.8671 247.86 93.4875C247.86 93.1078 247.551 92.8 247.17 92.8C246.789 92.8 246.481 93.1078 246.481 93.4875C246.481 93.8671 246.789 94.1749 247.17 94.1749Z" fill="#252121"/>
<path d="M251.078 94.1749C251.459 94.1749 251.768 93.8671 251.768 93.4875C251.768 93.1078 251.459 92.8 251.078 92.8C250.697 92.8 250.389 93.1078 250.389 93.4875C250.389 93.8671 250.697 94.1749 251.078 94.1749Z" fill="#252121"/>
<path d="M249.699 92.8L247.4 96.6954L249.699 98.7576" stroke="#252121" stroke-miterlimit="10"/>
<path d="M281.421 158.104H248.09L249.699 125.108C250.389 117.547 253.653 107.236 260.503 107.236H265.1C272.417 107.236 278.662 119.417 278.662 126.712L281.421 158.104Z" fill="#D9D9D9"/>
<path d="M255.715 104.319C255.715 104.319 262.815 105.946 267.291 99.2571V103.799L255.715 106.358V104.319Z" fill="#DD9BA3"/>
<path d="M248.623 100.304C248.623 100.304 251.538 101.507 253.607 99.2161" stroke="#252121" stroke-miterlimit="10"/>
<path d="M231.381 146.086L231.333 146.313L231.195 146.304L231.381 146.086Z" fill="#F0B6BB"/>
<path d="M226.88 159.307C226.88 159.307 216.272 163.862 210.27 157.9C209.557 157.193 209.061 156.297 208.84 155.318C208.62 154.34 208.685 153.319 209.026 152.376L209.523 151.001C209.823 150.183 210.409 149.5 211.174 149.079C211.939 148.658 212.831 148.527 213.686 148.709C215.708 149.124 218.6 149.168 221.802 147.465C221.802 147.465 212.571 147.722 214.217 146.645C215.862 145.568 226.577 144.94 226.648 144.908C226.719 144.876 226.88 159.307 226.88 159.307Z" fill="#F0B6BB"/>
<path d="M267.358 116.404L266.662 116.19C263.017 115.067 259.15 117.102 258.023 120.736L249.642 147.775C248.516 151.408 250.558 155.264 254.203 156.386L254.899 156.601C258.544 157.723 262.411 155.688 263.538 152.055L271.919 125.015C273.045 121.382 271.003 117.527 267.358 116.404Z" fill="#F0B6BB"/>
<path d="M263.006 146.609L263.216 150.04C263.335 152.029 262.657 153.983 261.331 155.474C260.005 156.964 258.139 157.868 256.144 157.988L221.544 160.091L220.645 145.397L258.989 143.066C259.993 143.005 260.981 143.344 261.734 144.008C262.487 144.673 262.945 145.608 263.006 146.609Z" fill="#F0B6BB"/>
<path d="M271.063 141.902L248.767 135.035L253.773 118.883C254.689 115.938 256.74 113.476 259.475 112.038C262.211 110.599 265.408 110.303 268.363 111.213C271.32 112.123 273.792 114.167 275.237 116.895C276.682 119.623 276.98 122.812 276.067 125.759L271.063 141.902Z" fill="#D9D9D9"/>
<path d="M271.75 141.959L248.892 135.149L253.096 121.007" stroke="#252121" stroke-miterlimit="10"/>
<path d="M191.882 101.049H182.589V154.667H191.882V101.049Z" fill="#252121"/>
<path d="M219.126 113.422H225.103V101.049H219.126V113.422Z" fill="#D9D9D9"/>
<path d="M184.584 111.36H189.182V101.278H184.584V111.36Z" fill="#D9D9D9"/>
<path d="M234.068 110.902H245.791V107.236H234.068V110.902Z" fill="#D9D9D9"/>
<path d="M234.068 116.859H245.791V113.422H234.068V116.859Z" fill="#D9D9D9"/>
<path d="M122.464 298.793H178.428V245.176H122.464V298.793Z" fill="#FD521B"/>
<path d="M122.462 245.176H113.169V298.794H122.462V245.176Z" fill="#252121"/>
<path d="M149.706 257.549H155.683V245.176H149.706V257.549Z" fill="#D9D9D9"/>
<path d="M115.226 255.029H119.823V244.947H115.226V255.029Z" fill="#D9D9D9"/>
<path d="M164.648 255.029H176.371V251.362H164.648V255.029Z" fill="#D9D9D9"/>
<path d="M164.648 260.986H176.371V257.549H164.648V260.986Z" fill="#D9D9D9"/>
<path d="M121.315 243.114H177.279V189.496H121.315V243.114Z" fill="#FD521B"/>
<path d="M121.313 189.496H112.019V243.113H121.313V189.496Z" fill="#252121"/>
<path d="M148.557 201.869H154.533V189.496H148.557V201.869Z" fill="#D9D9D9"/>
<path d="M114.077 199.348H118.674V189.266H114.077V199.348Z" fill="#D9D9D9"/>
<path d="M163.498 199.348H175.222V195.682H163.498V199.348Z" fill="#D9D9D9"/>
<path d="M163.498 205.306H175.222V201.869H163.498V205.306Z" fill="#D9D9D9"/>
<path d="M277.681 78.1355C277.681 75.887 276.785 73.7306 275.19 72.1406C273.595 70.5507 271.431 69.6575 269.176 69.6575C266.92 69.6575 264.757 70.5507 263.162 72.1406C261.567 73.7306 260.671 75.887 260.671 78.1355V78.147C260.413 78.1355 260.149 78.147 259.878 78.147C251.032 78.6281 245.872 81.5153 243.66 88.9782C243.66 88.9782 246.364 91.8653 261.843 86.57L266.266 96.9247L270.555 91.8837C270.285 90.0895 269.844 88.3249 269.24 86.6135C271.485 86.5966 273.631 85.6959 275.213 84.1078C276.794 82.5197 277.681 80.373 277.681 78.1355Z" fill="#FDAD00"/>
<path d="M34.4802 298.564H266.187" stroke="#252121" stroke-miterlimit="10"/>
<path d="M128.379 109.113L129.505 109.29L130.472 103.179L129.346 103.002L128.379 109.113Z" fill="#252121"/>
<path d="M136.973 109.983L105.438 105.027L97.948 152.382L129.483 157.338L136.973 109.983Z" fill="#FD521B"/>
<path d="M135.005 111.358L106.888 106.939L99.9181 151.005L128.035 155.424L135.005 111.358Z" fill="#D9D9D9"/>
<path d="M129.489 157.333L130.501 157.492L137.991 110.137L136.979 109.978L129.489 157.333Z" fill="#252121"/>
<path d="M113.674 100.543L112.709 108.381L128.037 110.673L129.342 103.006L113.674 100.543ZM127.117 106.778L114.628 104.816L114.934 102.882L127.423 104.844L127.117 106.778Z" fill="#FD521B"/>
<path d="M266.479 96.0079C268.765 96.0079 270.617 94.1614 270.617 91.8835C270.617 89.6056 268.765 87.759 266.479 87.759C264.194 87.759 262.342 89.6056 262.342 91.8835C262.342 94.1614 264.194 96.0079 266.479 96.0079Z" fill="#F0B6BB"/>
<path d="M266.479 89.363L264.87 92.8001H267.858" stroke="#252121" stroke-miterlimit="10"/>
<path d="M268.778 97.612C269.667 97.612 270.387 96.8938 270.387 96.008C270.387 95.1222 269.667 94.4041 268.778 94.4041C267.889 94.4041 267.169 95.1222 267.169 96.008C267.169 96.8938 267.889 97.612 268.778 97.612Z" fill="#FDAD00"/>
</svg>
