<svg width="314" height="313" viewBox="0 0 314 313" fill="none" xmlns="http://www.w3.org/2000/svg">
<path d="M123.568 109.985C121.783 109.985 120.071 110.692 118.809 111.95C117.547 113.209 116.837 114.915 116.837 116.694V151.459C116.835 153.026 117.404 154.541 118.438 155.721C119.473 156.901 120.902 157.666 122.46 157.875C122.745 157.915 123.034 157.935 123.322 157.934H184.534C184.822 157.935 185.11 157.915 185.396 157.875C186.954 157.667 188.384 156.902 189.419 155.722C190.453 154.541 191.023 153.026 191.02 151.459V116.685C191.018 114.908 190.308 113.203 189.046 111.947C187.784 110.691 186.073 109.985 184.29 109.985H123.568Z" fill="#252121"/>
<path d="M55.3982 176.435H49.4216V289.857H55.3982V176.435Z" fill="#3F3838"/>
<path d="M61.3748 176.435H55.3982V289.857H61.3748V176.435Z" fill="#252121"/>
<path d="M139.76 176.435H133.783V289.857H139.76V176.435Z" fill="#3F3838"/>
<path d="M145.736 176.435H139.76V289.857H145.736V176.435Z" fill="#252121"/>
<path d="M97.0044 176.435H91.0278V289.857H97.0044V176.435Z" fill="#3F3838"/>
<path d="M102.981 176.435H97.0044V289.857H102.981V176.435Z" fill="#252121"/>
<path d="M216.536 175.747H210.559V289.17H216.536V175.747Z" fill="#3F3838"/>
<path d="M222.512 175.747H216.536V289.17H222.512V175.747Z" fill="#252121"/>
<path d="M116.313 172.998H45.5139V181.476H116.313V172.998Z" fill="#3F3838"/>
<path d="M30.8022 289.296H288.025" stroke="#252121" stroke-miterlimit="10"/>
<path d="M227.11 172.998H99.0732V181.476H227.11V172.998Z" fill="#252121"/>
<path d="M141.842 148.132H138.468V168.314H141.842V148.132Z" fill="#3F3838"/>
<path d="M141.842 168.314H175.589V148.132H141.842V168.314Z" fill="#252121"/>
<path d="M125.867 109.985C124.082 109.985 122.37 110.692 121.108 111.95C119.845 113.209 119.136 114.915 119.136 116.694V151.459C119.134 153.026 119.703 154.541 120.737 155.721C121.771 156.901 123.201 157.666 124.759 157.875C125.044 157.915 125.332 157.935 125.621 157.934H186.832C187.121 157.935 187.409 157.915 187.694 157.875C189.253 157.667 190.683 156.902 191.717 155.722C192.752 154.541 193.321 153.026 193.319 151.459V116.685C193.317 114.908 192.607 113.203 191.345 111.947C190.083 110.691 188.372 109.985 186.589 109.985H125.867Z" fill="#FD521B"/>
<path d="M135.353 172.97H171.955V169.348H135.353V172.97Z" fill="#252121"/>
<path d="M119.302 153.177C119.602 154.454 120.285 155.608 121.26 156.488C122.235 157.368 123.455 157.932 124.759 158.104H187.694C188.997 157.931 190.216 157.367 191.19 156.487C192.163 155.607 192.846 154.453 193.147 153.177H119.302Z" fill="#252121"/>
<path d="M134.921 156.383C135.495 156.383 135.96 155.919 135.96 155.347C135.96 154.775 135.495 154.312 134.921 154.312C134.347 154.312 133.882 154.775 133.882 155.347C133.882 155.919 134.347 156.383 134.921 156.383Z" fill="#E07C46"/>
<path d="M131.804 156.383C132.378 156.383 132.843 155.919 132.843 155.347C132.843 154.775 132.378 154.312 131.804 154.312C131.23 154.312 130.765 154.775 130.765 155.347C130.765 155.919 131.23 156.383 131.804 156.383Z" fill="#E07C46"/>
<path d="M128.689 156.383C129.263 156.383 129.728 155.919 129.728 155.347C129.728 154.775 129.263 154.312 128.689 154.312C128.116 154.312 127.65 154.775 127.65 155.347C127.65 155.919 128.116 156.383 128.689 156.383Z" fill="#E07C46"/>
<path d="M142.249 172.97H187.407V169.348H142.249V172.97Z" fill="#3F3838"/>
<path d="M183.499 241.732L208.174 220.702L181.015 189.038L156.34 210.068L183.499 241.732Z" fill="#E07C46"/>
<path d="M227.478 246.282L209.844 263.156L187.469 239.864L205.238 223.215L227.478 246.282Z" fill="#F0AFA2"/>
<path d="M237.199 254.197L202.284 287.616C200.296 289.52 197.096 287.405 198.087 284.837L206.456 263.069L201.594 262.441L211.332 253.122L213.401 257.476C217.478 255.111 222.554 251.044 225.032 243.741C225.041 243.739 231.866 245.668 237.199 254.197Z" fill="#FDAD00"/>
<path d="M198.696 287.475L235.775 251.994L237.677 253.969C238.268 254.583 238.59 255.405 238.573 256.256C238.555 257.107 238.2 257.916 237.584 258.505L205.981 288.746C205.145 289.546 204.025 289.982 202.867 289.958C201.709 289.935 200.608 289.453 199.805 288.621L198.699 287.472L198.696 287.475Z" fill="#252121"/>
<path d="M204.422 268.348L211.642 265.023" stroke="#252121" stroke-miterlimit="10"/>
<path d="M202.286 273.978L209.507 270.653" stroke="#252121" stroke-miterlimit="10"/>
<path d="M205.116 282.747L212.702 261.854" stroke="#252121" stroke-miterlimit="10"/>
<path d="M227.39 244.756C227.39 244.756 222.793 249.878 231.248 257.918" stroke="#252121" stroke-miterlimit="10"/>
<path d="M216.042 266.332C216.616 266.332 217.081 265.868 217.081 265.296C217.081 264.724 216.616 264.26 216.042 264.26C215.468 264.26 215.003 264.724 215.003 265.296C215.003 265.868 215.468 266.332 216.042 266.332Z" fill="#252121"/>
<path d="M219.789 262.748C220.362 262.748 220.828 262.284 220.828 261.712C220.828 261.14 220.362 260.677 219.789 260.677C219.215 260.677 218.75 261.14 218.75 261.712C218.75 262.284 219.215 262.748 219.789 262.748Z" fill="#252121"/>
<path d="M207.971 264.95C207.971 264.95 193.489 273.073 198.533 268.6C203.576 264.127 207.971 264.95 207.971 264.95Z" stroke="#252121" stroke-miterlimit="10"/>
<path d="M208.09 264.836C208.09 264.836 216.825 250.739 212.134 255.585C207.442 260.432 208.09 264.836 208.09 264.836Z" stroke="#252121" stroke-miterlimit="10"/>
<path d="M206.53 215.666L179.5 238.702L186.923 247.356L213.953 224.319L206.53 215.666Z" fill="#E07C46"/>
<path d="M181.81 241.388L208.84 218.351" stroke="#252121" stroke-miterlimit="10"/>
<path d="M171.217 272.136L146.812 273.534L144.999 241.335L169.358 240.197L171.217 272.136Z" fill="#F0AFA2"/>
<path d="M173.445 284.447L125.115 287.22C122.357 287.378 121.311 283.698 123.736 282.388L144.286 271.274L141.013 267.647L154.49 266.875L153.221 271.526C157.862 272.372 164.37 272.569 171.015 268.623C171.022 268.616 174.95 274.505 173.445 284.447Z" fill="#FDAD00"/>
<path d="M122.491 284.783L173.805 281.843L173.963 284.576C174.012 285.426 173.72 286.26 173.153 286.895C172.585 287.53 171.787 287.914 170.935 287.963L127.199 290.469C126.042 290.536 124.907 290.141 124.042 289.373C123.177 288.605 122.654 287.526 122.588 286.373L122.496 284.783L122.491 284.783Z" fill="#252121"/>
<path d="M139.307 273.964L146.962 276.118" stroke="#252121" stroke-miterlimit="10"/>
<path d="M134.015 276.861L141.67 279.012" stroke="#252121" stroke-miterlimit="10"/>
<path d="M130.446 285.357L149.835 274.397" stroke="#252121" stroke-miterlimit="10"/>
<path d="M172.146 270.919C172.146 270.919 165.305 271.836 166.496 283.421" stroke="#252121" stroke-miterlimit="10"/>
<path d="M150.129 280.211C150.703 280.211 151.168 279.747 151.168 279.175C151.168 278.603 150.703 278.139 150.129 278.139C149.556 278.139 149.09 278.603 149.09 279.175C149.09 279.747 149.556 280.211 150.129 280.211Z" fill="#252121"/>
<path d="M155.313 279.915C155.887 279.915 156.352 279.451 156.352 278.879C156.352 278.307 155.887 277.844 155.313 277.844C154.739 277.844 154.274 278.307 154.274 278.879C154.274 279.451 154.739 279.915 155.313 279.915Z" fill="#252121"/>
<path d="M144.222 273.682C144.222 273.682 127.915 270.475 134.668 270.344C141.422 270.213 144.222 273.682 144.222 273.682Z" stroke="#252121" stroke-miterlimit="10"/>
<path d="M144.385 273.673C144.385 273.673 160.213 268.619 153.492 269.265C146.771 269.911 144.385 273.673 144.385 273.673Z" stroke="#252121" stroke-miterlimit="10"/>
<path d="M226.793 182.392H170.204C155.915 182.392 144.229 194.046 144.229 208.285V248.53C144.23 249.106 144.461 249.657 144.869 250.064C145.277 250.471 145.83 250.701 146.408 250.702H170.859C171.436 250.701 171.99 250.471 172.398 250.064C172.807 249.657 173.038 249.106 173.04 248.53V211.121H216.026C219.631 211.115 223.088 209.685 225.639 207.145C228.19 204.604 229.628 201.16 229.638 197.566V185.227C229.638 184.854 229.565 184.486 229.422 184.142C229.279 183.798 229.069 183.485 228.805 183.222C228.54 182.958 228.227 182.75 227.881 182.607C227.536 182.465 227.166 182.392 226.793 182.392Z" fill="#E07C46"/>
<path d="M175.361 244.081L139.8 244.471L139.926 255.856L175.486 255.467L175.361 244.081Z" fill="#E07C46"/>
<path d="M139.833 248.015L175.394 247.625" stroke="#252121" stroke-miterlimit="10"/>
<path d="M220.513 119.928L207.445 119.566L206.999 135.604L220.066 135.966L220.513 119.928Z" fill="#F0AFA2"/>
<path d="M209.631 129.515C216.911 129.515 222.814 123.631 222.814 116.374C222.814 109.116 216.911 103.233 209.631 103.233C202.35 103.233 196.448 109.116 196.448 116.374C196.448 123.631 202.35 129.515 209.631 129.515Z" fill="#F0AFA2"/>
<path d="M200.036 116.935C200.466 116.935 200.815 116.587 200.815 116.158C200.815 115.729 200.466 115.382 200.036 115.382C199.605 115.382 199.257 115.729 199.257 116.158C199.257 116.587 199.605 116.935 200.036 116.935Z" fill="#252121"/>
<path d="M197.585 115.347L195.974 120.191L199.004 121.923" stroke="#252121" stroke-miterlimit="10"/>
<path d="M230.098 186.134L191.993 185.245L197.445 153.936C199.123 145.527 203.882 132.338 211.578 133.153L216.729 133.696C224.947 134.565 230.505 148.987 229.634 157.178L230.098 186.134Z" fill="#D9D9D9"/>
<path d="M207.183 129.288C207.183 129.288 215.147 131.35 220.409 123.938L220.267 129.05L207.118 131.57L207.183 129.288Z" fill="#DD9BA3"/>
<path d="M199.296 124.535C199.296 124.535 202.548 125.984 204.955 123.463" stroke="#252121" stroke-miterlimit="10"/>
<path d="M201.344 110.666L201.607 110.675L201.623 110.829L201.344 110.666Z" fill="#F0AFA2"/>
<path d="M151.301 197.483C152.189 197.483 152.191 196.108 151.301 196.108C150.412 196.108 150.412 197.483 151.301 197.483Z" fill="#E046A2"/>
<path d="M186.929 281.244H228.981C230.2 281.244 231.188 280.259 231.188 279.044C231.188 277.83 230.2 276.845 228.981 276.845H186.929C185.71 276.845 184.722 277.83 184.722 279.044C184.722 280.259 185.71 281.244 186.929 281.244Z" fill="#252121"/>
<path d="M231.188 290.045C234.055 290.045 236.38 287.728 236.38 284.869C236.38 282.01 234.055 279.693 231.188 279.693C228.32 279.693 225.995 282.01 225.995 284.869C225.995 287.728 228.32 290.045 231.188 290.045Z" fill="#252121"/>
<path d="M208.343 290.045C211.211 290.045 213.536 287.728 213.536 284.869C213.536 282.01 211.211 279.693 208.343 279.693C205.475 279.693 203.151 282.01 203.151 284.869C203.151 287.728 205.475 290.045 208.343 290.045Z" fill="#252121"/>
<path d="M186.798 290.045C189.666 290.045 191.99 287.728 191.99 284.869C191.99 282.01 189.666 279.693 186.798 279.693C183.93 279.693 181.605 282.01 181.605 284.869C181.605 287.728 183.93 290.045 186.798 290.045Z" fill="#252121"/>
<path d="M208.343 254.593L225.995 256.662L230.149 252.781" stroke="#252121" stroke-miterlimit="10"/>
<path d="M230.649 255.834L237.624 248.881L234.32 245.587L227.345 252.54L230.649 255.834Z" fill="#252121"/>
<path d="M173.04 211.121V229.546L202.891 210.929L173.04 211.121Z" fill="#252121"/>
<path d="M185.242 221.99H231.707C233.427 221.99 234.822 220.599 234.822 218.885V214.226C234.822 212.512 233.427 211.122 231.707 211.122H185.242C183.521 211.122 182.127 212.512 182.127 214.226V218.885C182.127 220.599 183.521 221.99 185.242 221.99Z" fill="#252121"/>
<path d="M207.047 276.46C207.047 277.245 207.686 277.883 208.474 277.883C209.263 277.883 209.902 277.245 209.902 276.46V219.015C209.902 218.229 209.263 217.592 208.474 217.592C207.686 217.592 207.047 218.229 207.047 219.015V276.46Z" fill="#252121"/>
<path d="M213.534 195.595H171.971C168.674 195.595 165.512 196.901 163.181 199.225C160.85 201.549 159.54 204.7 159.54 207.987V243.984" stroke="#252121" stroke-miterlimit="10"/>
<path d="M173.04 244.154L144.222 244.426V238.551L173.04 244.154Z" fill="#252121"/>
<path d="M180.21 237.905L198.861 221.99L176.881 234.487L180.21 237.905Z" fill="#252121"/>
<path d="M212.642 141.782L211.983 140.961C209.332 137.657 204.496 137.122 201.182 139.765L177.08 158.986C173.765 161.628 173.228 166.449 175.879 169.752L176.539 170.574C179.19 173.877 184.026 174.413 187.34 171.77L211.442 152.549C214.756 149.906 215.294 145.086 212.642 141.782Z" fill="#F0AFA2"/>
<path d="M150.874 156.349C150.874 156.349 139.192 150.547 132.057 156.919C131.209 157.677 130.596 158.66 130.287 159.753C129.979 160.845 129.988 162.003 130.315 163.09L130.788 164.676C131.374 166.632 133.546 168.502 135.342 167.524C140.332 164.804 143.031 170.434 146.042 172.308C146.042 172.308 151.697 172.26 151.235 172.567C151.164 172.613 150.874 156.349 150.874 156.349Z" fill="#F0AFA2"/>
<path d="M190.194 167.181L190.227 166.363C190.399 162.068 187.046 158.447 182.737 158.275L150.677 156.997C146.369 156.825 142.736 160.167 142.564 164.462L142.531 165.28C142.358 169.575 145.712 173.197 150.02 173.368L182.08 174.647C186.389 174.818 190.022 171.476 190.194 167.181Z" fill="#F0AFA2"/>
<path d="M200.979 162.117L189.883 146.166L201.511 138.128C203.633 136.662 206.252 136.095 208.792 136.554C211.333 137.012 213.587 138.458 215.058 140.573V140.573C216.529 142.688 217.098 145.298 216.638 147.831C216.178 150.363 214.728 152.61 212.606 154.077L200.978 162.115L200.979 162.117Z" fill="#FDAD00"/>
<path d="M179.139 157.336L181.601 162.476L175.957 157.336H179.139Z" fill="#252121"/>
<path d="M208.235 183.698H240.387C242.478 183.698 244.173 182.009 244.173 179.925V147.875C244.173 145.791 242.478 144.101 240.387 144.101H208.235C206.144 144.101 204.449 145.791 204.449 147.875V179.925C204.449 182.009 206.144 183.698 208.235 183.698Z" fill="#252121"/>
<path d="M213.161 183.698H245.313C247.404 183.698 249.099 182.009 249.099 179.925V147.875C249.099 145.791 247.404 144.101 245.313 144.101H213.161C211.07 144.101 209.375 145.791 209.375 147.875V179.925C209.375 182.009 211.07 183.698 213.161 183.698Z" fill="#3F3838"/>
<path d="M225.926 218.19C233.546 212.863 237.125 203.296 236.27 190.536C235.842 184.579 234.666 178.699 232.769 173.034L229.593 174.18L231.181 173.614L229.59 174.18C229.698 174.478 240.111 204.169 223.981 215.45L225.926 218.19Z" fill="#3F3838"/>
<path d="M199.314 221.99H232.171C233.635 221.99 234.822 220.807 234.822 219.348V213.764C234.822 212.304 233.635 211.122 232.171 211.122H199.314C197.85 211.122 196.664 212.304 196.664 213.764V219.348C196.664 220.807 197.85 221.99 199.314 221.99Z" fill="#3F3838"/>
<path d="M173.04 187.058L179.766 192.933" stroke="#FDAD00" stroke-miterlimit="10" stroke-linecap="round"/>
<path d="M226.085 195.568L218.729 204.275" stroke="#FDAD00" stroke-miterlimit="10" stroke-linecap="round"/>
<path d="M195.972 201.984L201.259 207.712" stroke="#FDAD00" stroke-miterlimit="10" stroke-linecap="round"/>
<path d="M182.869 186.173L184.708 190.068" stroke="#FDAD00" stroke-miterlimit="10" stroke-linecap="round"/>
<path d="M208.844 190.068L199.19 192.818" stroke="#FDAD00" stroke-miterlimit="10" stroke-linecap="round"/>
<path d="M152.987 192.818L156.435 196.943" stroke="#FDAD00" stroke-miterlimit="10" stroke-linecap="round"/>
<path d="M182.869 201.984L176.203 207.712" stroke="#FDAD00" stroke-miterlimit="10" stroke-linecap="round"/>
<path d="M165.399 207.712L168.388 216.877" stroke="#FDAD00" stroke-miterlimit="10" stroke-linecap="round"/>
<path d="M150.228 215.503L152.986 221.918" stroke="#FDAD00" stroke-miterlimit="10" stroke-linecap="round"/>
<path d="M167.468 229.48L164.25 233.146" stroke="#FDAD00" stroke-miterlimit="10" stroke-linecap="round"/>
<path d="M149.079 228.563L152.986 234.521" stroke="#FDAD00" stroke-miterlimit="10" stroke-linecap="round"/>
<path d="M152.986 204.733L149.079 207.712" stroke="#FDAD00" stroke-miterlimit="10" stroke-linecap="round"/>
<path d="M162.181 188.006V192.818" stroke="#FDAD00" stroke-miterlimit="10" stroke-linecap="round"/>
<path d="M183.789 226.501L179.766 230.011" stroke="#FDAD00" stroke-miterlimit="10" stroke-linecap="round"/>
<path d="M85.0512 97.3828H49.4216V171.852H85.0512V97.3828Z" fill="#252121"/>
<path d="M76.0865 171.852H111.256L111.256 97.3828H76.0865V171.852Z" fill="#3F3838"/>
<path d="M108.268 107.694H79.7642V109.985H108.268V107.694Z" fill="#252121"/>
<path d="M108.268 112.964H79.7642V115.255H108.268V112.964Z" fill="#252121"/>
<path d="M108.268 126.254H79.7642V128.546H108.268V126.254Z" fill="#252121"/>
<path d="M87.1086 134.157C87.6824 134.157 88.1476 133.693 88.1476 133.121C88.1476 132.549 87.6824 132.085 87.1086 132.085C86.5348 132.085 86.0696 132.549 86.0696 133.121C86.0696 133.693 86.5348 134.157 87.1086 134.157Z" fill="#E07C46"/>
<path d="M83.9916 134.157C84.5655 134.157 85.0306 133.693 85.0306 133.121C85.0306 132.549 84.5655 132.085 83.9916 132.085C83.4178 132.085 82.9526 132.549 82.9526 133.121C82.9526 133.693 83.4178 134.157 83.9916 134.157Z" fill="#E07C46"/>
<path d="M80.8769 134.157C81.4507 134.157 81.9159 133.693 81.9159 133.121C81.9159 132.549 81.4507 132.085 80.8769 132.085C80.3031 132.085 79.8379 132.549 79.8379 133.121C79.8379 133.693 80.3031 134.157 80.8769 134.157Z" fill="#E07C46"/>
<path d="M196.997 108.84C196.997 108.84 194.698 113.423 205.732 112.735C216.766 112.048 213.777 110.673 213.777 110.673C213.777 110.673 200.675 130.837 212.858 134.732C225.041 138.627 234.236 123.046 230.098 117.547C225.96 112.048 228.029 110.444 225.271 106.548C222.512 102.653 206.422 93.2585 196.997 108.84Z" fill="#252121"/>
<path d="M213.722 110.414L212.522 109.727L209.994 114.112L211.194 114.8L213.722 110.414Z" fill="#FDAD00"/>
<path d="M211.182 110.414L209.982 109.727L207.454 114.112L208.654 114.8L211.182 110.414Z" fill="#FDAD00"/>
<path d="M192.17 73.3235C192.17 77.2736 190.596 81.0619 187.794 83.8551C184.992 86.6482 181.191 88.2174 177.228 88.2174H141.429C143.082 94.1383 145.874 104.074 146.196 104.715C146.573 105.467 138.119 92.7818 135.08 88.2174H117.003C113.04 88.2174 109.24 86.6482 106.438 83.8551C103.636 81.0619 102.062 77.2736 102.062 73.3235C102.062 69.3734 103.636 65.5851 106.438 62.792C109.24 59.9989 113.04 58.4297 117.003 58.4297H177.228C181.191 58.4297 184.992 59.9989 187.794 62.792C190.596 65.5851 192.17 69.3734 192.17 73.3235Z" fill="#D9D9D9"/>
<path d="M136.877 68.8943L133.563 73.2479V73.3235L138.831 72.6361V75.0008L133.553 74.3546V74.4234L136.912 78.5936L134.714 79.8447L132.634 74.9802H132.563L130.296 79.8837L128.308 78.6303L131.623 74.389V74.3203L126.46 74.9802V72.6155L131.588 73.2754V73.2067L128.296 68.9699L130.425 67.7532L132.588 72.5857H132.657L134.786 67.7166L136.877 68.8943Z" fill="black"/>
<path d="M151.354 68.8943L148.04 73.2479V73.3235L153.308 72.6361V75.0008L148.035 74.3546V74.4234L151.389 78.5936L149.184 79.847L147.09 74.9802H147.021L144.755 79.8837L142.766 78.6303L146.079 74.389V74.3203L140.916 74.9802V72.6155L146.044 73.2754V73.2067L142.773 68.9699L144.9 67.7532L147.063 72.5857H147.134L149.26 67.7166L151.354 68.8943Z" fill="black"/>
<path d="M165.829 68.8943L162.517 73.2479V73.3235L167.783 72.6361V75.0008L162.517 74.3546V74.4234L165.866 78.5936L163.666 79.847L161.572 74.9802H161.503L159.234 79.8837L157.246 78.6303L160.561 74.389V74.3203L155.391 74.9802V72.6155L160.519 73.2754V73.2067L157.248 68.9699L159.377 67.7532L161.54 72.5857H161.609L163.737 67.7166L165.829 68.8943Z" fill="black"/>
<path d="M267.337 279.775V184.913" stroke="#252121" stroke-miterlimit="10"/>
<path d="M253.315 189.037L267.337 215.39" stroke="#252121" stroke-miterlimit="10"/>
<path d="M279.979 174.373L267.337 196.89" stroke="#252121" stroke-miterlimit="10"/>
<path d="M276.794 267.468H252.133C250.413 267.468 249.019 268.858 249.019 270.573V286.099C249.019 287.814 250.413 289.204 252.133 289.204H276.794C278.514 289.204 279.908 287.814 279.908 286.099V270.573C279.908 268.858 278.514 267.468 276.794 267.468Z" fill="#E07C46"/>
<path d="M278.998 265.915H249.667C248.018 265.915 246.681 267.247 246.681 268.89C246.681 270.533 248.018 271.865 249.667 271.865H278.998C280.647 271.865 281.984 270.533 281.984 268.89C281.984 267.247 280.647 265.915 278.998 265.915Z" fill="#E07C46"/>
<path d="M279.908 271.723H249.019L279.908 274.973V271.723Z" fill="#252121"/>
<path d="M280.012 178.153C282.162 178.153 283.906 176.415 283.906 174.272C283.906 172.128 282.162 170.39 280.012 170.39C277.861 170.39 276.118 172.128 276.118 174.272C276.118 176.415 277.861 178.153 280.012 178.153Z" fill="#7BB27B"/>
<path d="M267.369 187.548C269.52 187.548 271.263 185.81 271.263 183.666C271.263 181.523 269.52 179.785 267.369 179.785C265.219 179.785 263.475 181.523 263.475 183.666C263.475 185.81 265.219 187.548 267.369 187.548Z" fill="#7BB27B"/>
<path d="M253.807 193.047C255.957 193.047 257.701 191.309 257.701 189.166C257.701 187.022 255.957 185.284 253.807 185.284C251.656 185.284 249.913 187.022 249.913 189.166C249.913 191.309 251.656 193.047 253.807 193.047Z" fill="#7BB27B"/>
<path d="M276.072 217.679L267.337 232.344L253.315 222.033" stroke="#252121" stroke-miterlimit="10"/>
<path d="M275.152 239.447L267.369 247.82" stroke="#252121" stroke-miterlimit="10"/>
<path d="M276.104 221.46C278.255 221.46 279.998 219.722 279.998 217.579C279.998 215.435 278.255 213.697 276.104 213.697C273.953 213.697 272.21 215.435 272.21 217.579C272.21 219.722 273.953 221.46 276.104 221.46Z" fill="#7BB27B"/>
<path d="M275.185 243.228C277.335 243.228 279.078 241.49 279.078 239.346C279.078 237.203 277.335 235.465 275.185 235.465C273.034 235.465 271.291 237.203 271.291 239.346C271.291 241.49 273.034 243.228 275.185 243.228Z" fill="#7BB27B"/>
<path d="M253.807 227.188C255.957 227.188 257.701 225.451 257.701 223.307C257.701 221.163 255.957 219.425 253.807 219.425C251.656 219.425 249.913 221.163 249.913 223.307C249.913 225.451 251.656 227.188 253.807 227.188Z" fill="#7BB27B"/>
</svg>
