<svg width="60" height="60" viewBox="0 0 60 60" fill="none" xmlns="http://www.w3.org/2000/svg">
<path d="M19.6831 49.292C8.83023 49.292 0 40.5443 0 29.6833C0 46.0976 13.3687 59.4158 29.8453 59.4158C46.3218 59.4158 59.6905 46.0976 59.6905 29.6833H39.3168C39.3661 40.5443 30.5852 49.292 19.6831 49.292Z" fill="#EC712C"/>
<path d="M0.0492554 29.7325C0.0492554 40.5443 8.83018 49.3411 19.7323 49.3411C30.5852 49.3411 39.4154 40.5934 39.4154 29.7325H29.8945H0.0492554Z" fill="#FF5733"/>
<path d="M40.0567 10.1238C50.9095 10.1238 59.7398 18.8715 59.7398 29.7325C59.7398 13.3182 46.3711 0 29.8945 0C13.418 0 0.0492554 13.3182 0.0492554 29.7325H20.423C20.423 18.9207 29.2039 10.1238 40.0567 10.1238Z" fill="#EC502C"/>
<path d="M59.7398 29.7324C59.7398 18.9206 50.9588 10.1237 40.0567 10.1237C29.2039 10.1237 20.3736 18.8715 20.3736 29.7324H29.8945H59.7398Z" fill="#FFC301"/>
<path d="M0.0492554 29.7325C0.0492554 40.5443 8.83018 49.3411 19.7323 49.3411C30.5852 49.3411 39.4154 40.5934 39.4154 29.7325H29.8945H0.0492554Z" fill="url(#paint0_linear_1_438)"/>
<path d="M0.0492554 29.7325C0.0492554 40.5443 8.83018 49.3411 19.7323 49.3411C30.5852 49.3411 39.4154 40.5934 39.4154 29.7325H29.8945H0.0492554Z" fill="#EC502C"/>
<path d="M59.7398 29.7324C59.7398 18.9206 50.9588 10.1237 40.0567 10.1237C29.2039 10.1237 20.3736 18.8715 20.3736 29.7324H29.8945H59.7398Z" fill="#EC712C"/>
<path d="M20.423 29.7325C20.423 34.9418 24.6655 39.1682 29.8946 39.1682C35.1236 39.1682 39.3661 34.9418 39.3661 29.7325H34.7783H20.423Z" fill="url(#paint1_linear_1_438)"/>
<path d="M39.2675 29.7325C39.2675 24.5231 35.025 20.3458 29.8452 20.3458C24.6162 20.3458 20.423 24.5723 20.423 29.7325H24.9615H39.2675Z" fill="url(#paint2_linear_1_438)"/>
<defs>
<linearGradient id="paint0_linear_1_438" x1="19.7055" y1="48.6266" x2="19.7055" y2="30.3184" gradientUnits="userSpaceOnUse">
<stop stop-opacity="0.25"/>
<stop offset="1" stop-opacity="0"/>
</linearGradient>
<linearGradient id="paint1_linear_1_438" x1="29.9081" y1="30.2295" x2="29.9083" y2="39.2178" gradientUnits="userSpaceOnUse">
<stop stop-opacity="0.25"/>
<stop offset="1" stop-opacity="0"/>
</linearGradient>
<linearGradient id="paint2_linear_1_438" x1="29.8507" y1="29.727" x2="29.8507" y2="20.3805" gradientUnits="userSpaceOnUse">
<stop stop-opacity="0.25"/>
<stop offset="1" stop-opacity="0"/>
</linearGradient>
</defs>
</svg>
